<svg width="23" height="16" viewBox="0 0 23 16" fill="none" xmlns="http://www.w3.org/2000/svg">
<path d="M5.86804 16C4.18183 16 2.7654 15.5172 1.68622 14.4828C0.607038 13.4483 0 12 0 10.1379V0H2.96775V9.86208C2.96775 10.8966 3.23754 11.6552 3.70968 12.2069C4.24927 12.7586 4.92376 13.0345 5.86804 13.0345C6.81232 13.0345 7.48681 12.7586 8.0264 12.2069C8.56599 11.6552 8.83578 10.8966 8.83578 9.86208V0H11.8035V10.1379C11.8035 12 11.2639 13.4483 10.1173 14.4828C8.97067 15.5172 7.55426 16 5.86804 16ZM13.4897 12.6897C13.4897 11.7931 13.7595 11.0345 14.3666 10.4828C14.9736 9.93104 15.7155 9.58621 16.6598 9.44828L19.2903 9.03448C19.8299 8.96552 20.0997 8.68965 20.0997 8.27586C20.0997 7.86206 19.9648 7.51724 19.6276 7.24138C19.3578 6.96551 18.8856 6.8276 18.2786 6.8276C17.6716 6.8276 17.1994 6.96552 16.8622 7.31035C16.5249 7.65517 16.3226 8.06898 16.2551 8.55174L13.6921 8C13.7595 7.03448 14.2317 6.20689 15.0411 5.51724C15.8504 4.82758 16.9296 4.41381 18.2111 4.41381C19.7625 4.41381 20.9765 4.82759 21.7185 5.58621C22.4604 6.34483 22.8651 7.31036 22.8651 8.55174V13.8621C22.8651 14.4828 22.9326 15.1034 23 15.5862H20.3695C20.3021 15.2414 20.2346 14.8276 20.2346 14.2759C19.5601 15.3793 18.5484 15.8621 17.132 15.8621C16.0528 15.8621 15.176 15.5172 14.5015 14.8965C13.827 14.3448 13.4897 13.5862 13.4897 12.6897ZM17.739 13.7931C18.4135 13.7931 18.9531 13.5862 19.4252 13.2414C19.8974 12.8276 20.0997 12.2069 20.0997 11.3104V10.8276L17.6716 11.1724C16.7947 11.3103 16.3226 11.7931 16.3226 12.5517C16.3226 12.8966 16.4575 13.1724 16.6598 13.4483C16.9971 13.6552 17.3343 13.7931 17.739 13.7931Z" fill="#993333"/>
</svg>
