<svg width="69" height="16" viewBox="0 0 69 16" fill="none" xmlns="http://www.w3.org/2000/svg">
<path d="M2.10357 13.7588H5.225C6.71786 13.7588 8.00714 13.276 8.95714 12.2416C9.975 11.2071 10.45 9.75882 10.45 7.89675C10.45 5.96572 9.975 4.51742 8.95714 3.48294C8.00714 2.44846 6.71786 1.96571 5.225 1.96571H2.03571V13.7588H2.10357ZM5.36071 15.6898H0V0.034668H5.36071C7.46428 0.034668 9.16071 0.724323 10.5857 2.10363C12.0107 3.48294 12.6893 5.41399 12.6893 7.89675C12.6893 10.3105 12.0107 12.2416 10.5857 13.6209C9.16071 15.0002 7.39643 15.6898 5.36071 15.6898ZM20.5607 4.93122V7.13813C20.2893 7.06916 19.95 7.06916 19.6786 7.06916C17.7786 7.06916 16.8286 8.17261 16.8286 10.3105V15.6209H14.7929V5.00019H16.7607V6.86227C17.3714 5.48296 18.4571 4.86225 19.8821 4.86225C20.0857 4.93122 20.3571 4.93122 20.5607 4.93122ZM23.275 9.27606H28.975C28.975 8.44847 28.7036 7.82777 28.1607 7.34501C27.6857 6.86225 26.9393 6.58639 26.0572 6.58639C25.2429 6.58639 24.5643 6.86226 24.0893 7.41398C23.6143 7.89674 23.3429 8.5864 23.275 9.27606ZM29.3143 12.0347L31.0786 12.6554C30.8071 13.6209 30.1964 14.4485 29.3822 15.0692C28.5679 15.6898 27.55 15.9657 26.3964 15.9657C24.9036 15.9657 23.6822 15.483 22.6643 14.4485C21.6464 13.414 21.1714 12.0347 21.1714 10.3105C21.1714 8.72434 21.6464 7.34501 22.6643 6.31053C23.6822 5.27605 24.8357 4.72433 26.1929 4.72433C27.7536 4.72433 28.975 5.20708 29.8571 6.24156C30.7393 7.27604 31.2143 8.5864 31.2143 10.3105C31.2143 10.5864 31.2143 10.7933 31.1464 11.0002H23.275C23.275 11.9657 23.6143 12.7243 24.1571 13.345C24.7679 13.9657 25.5143 14.2416 26.3964 14.2416C27.8893 14.1726 28.8393 13.483 29.3143 12.0347ZM32.4357 12.8623C32.4357 11.9657 32.7071 11.2071 33.3179 10.6554C33.9286 10.1036 34.675 9.75882 35.625 9.62089L38.475 9.20709C39.0179 9.13812 39.2893 8.86225 39.2893 8.3795C39.2893 7.82777 39.0857 7.34501 38.7464 7.00019C38.3393 6.65536 37.7964 6.44847 37.05 6.44847C36.3714 6.44847 35.8286 6.65536 35.4214 7.06916C35.0143 7.48295 34.8107 7.96572 34.675 8.5864L32.7071 8.10364C32.775 7.06916 33.25 6.24157 34.0643 5.62088C34.8786 5.00019 35.8286 4.65536 36.9821 4.65536C38.475 4.65536 39.5607 5.0002 40.2393 5.75882C40.9179 6.44847 41.325 7.41399 41.325 8.51744V13.8278C41.325 14.4485 41.3929 15.0691 41.4607 15.5519H39.4929C39.425 15.1381 39.3571 14.6554 39.3571 14.1036C39.0857 14.5864 38.6107 15.0002 38.0679 15.345C37.525 15.6898 36.8464 15.8967 35.9643 15.8967C34.9464 15.8967 34.0643 15.6209 33.4536 15.0002C32.775 14.4485 32.4357 13.6898 32.4357 12.8623ZM36.2357 14.3105C37.1179 14.3105 37.8643 14.0347 38.4071 13.5519C38.95 13.0691 39.2214 12.2416 39.2214 11.1381V10.6554L36.0321 11.1381C35.5571 11.2071 35.2178 11.414 34.9464 11.6209C34.675 11.8967 34.5393 12.2416 34.5393 12.7243C34.5393 13.1381 34.675 13.4829 35.0143 13.8278C35.2857 14.1036 35.6929 14.3105 36.2357 14.3105ZM45.8036 15.6898H43.7679V5.06916H45.7357V6.44847C46.075 5.89675 46.4822 5.48296 47.0929 5.13813C47.7036 4.86227 48.3143 4.72433 48.925 4.72433C49.6036 4.72433 50.2143 4.86225 50.825 5.20708C51.3679 5.55191 51.8429 6.03467 52.1143 6.72433C52.8607 5.41398 54.0143 4.72433 55.6429 4.72433C56.6607 4.72433 57.475 5.06916 58.1536 5.75882C58.8321 6.44847 59.2393 7.48295 59.2393 8.79329V15.6898H57.2036V9.00018C57.2036 8.24156 57 7.68985 56.6607 7.2071C56.3214 6.7933 55.7786 6.51744 55.0321 6.51744C54.3536 6.51744 53.7429 6.79329 53.2679 7.27604C52.7929 7.7588 52.5893 8.3795 52.5893 9.20709V15.6209H50.5536V8.93123C50.5536 8.17261 50.35 7.62088 50.0107 7.13813C49.6714 6.72433 49.1286 6.44847 48.3822 6.44847C47.6357 6.44847 47.0929 6.72434 46.6179 7.2071C46.1429 7.68985 45.9393 8.3795 45.9393 9.13812V15.6898H45.8036ZM60.8 12.9312L62.6322 12.2416C62.7 12.7933 62.9714 13.2761 63.3786 13.6898C63.7857 14.0347 64.3964 14.2416 65.075 14.2416C65.6179 14.2416 66.0929 14.1036 66.3643 13.8278C66.7036 13.5519 66.8393 13.2071 66.8393 12.7933C66.8393 12.1036 66.3643 11.6209 65.4821 11.414L63.7179 11.0002C62.9036 10.7933 62.2929 10.4485 61.8179 9.96571C61.3429 9.41399 61.1393 8.79329 61.1393 8.03467C61.1393 7.13812 61.4786 6.31054 62.225 5.68985C62.9714 5.00019 63.8536 4.72433 64.8714 4.72433C65.55 4.72433 66.1607 4.79329 66.6357 5.00019C67.1786 5.20709 67.5857 5.48295 67.8571 5.75882C68.1286 6.10364 68.3321 6.3795 68.5357 6.65536C68.7393 6.93122 68.8071 7.20709 68.875 7.48295L67.0429 8.17261C67.0429 7.96571 66.975 7.82777 66.9072 7.68984C66.8393 7.48294 66.7036 7.34502 66.5679 7.13813C66.4322 6.93123 66.2286 6.79329 65.8893 6.65536C65.6179 6.51743 65.2786 6.44847 64.8714 6.44847C64.3964 6.44847 63.9214 6.58641 63.5822 6.86227C63.2429 7.13813 63.1071 7.48295 63.1071 7.82778C63.1071 8.51744 63.5143 8.93122 64.3286 9.13812L66.025 9.48295C66.975 9.68984 67.6536 10.1036 68.1286 10.6554C68.6036 11.2071 68.875 11.8967 68.875 12.6554C68.875 13.483 68.5357 14.2416 67.8571 14.9312C67.1786 15.6209 66.2286 15.9657 65.075 15.9657C63.7857 15.9657 62.7679 15.6209 62.0893 15.0002C61.3429 14.3795 60.8679 13.6898 60.8 12.9312Z" fill="black"/>
</svg>
